<svg viewBox="0 0 203 26.96"><path d="M14.18,13.65c-1.32-1.09-2-1.35-6.13-2.93C6.13,10,3.65,9,3.65,6c0-1.32.71-4.33,4.81-4.33a5.25,5.25,0,0,1,5.38,3.5h.38l1.16-3.31A12.74,12.74,0,0,0,8.91.08C4.48.08.56,2.52.56,7.37c0,4.48,2.34,5.3,7.79,7.6C10.87,16,13,17.11,13,20.16c0,2.4-1.61,5.11-5.56,5.11a7,7,0,0,1-6.36-4H.68L0,24.78a11.22,11.22,0,0,0,6.84,2.07c6.7,0,9.44-4.47,9.44-8.38a6,6,0,0,0-2.1-4.82ZM18.23,2.48h7.86V26.21h3.69V2.48h7.86L36.89.6H18.23ZM40.54,26.21h3.68V.6H40.54ZM70.6.6v20L50.82.6H50V26.21h1.88V6.92l19,19.29h1.58V.6ZM90.89,11.73H82V2.48h9.66L90.93.6H78.33V26.21H91.27L92,24.33H82V13.61h8.87Zm28.92,1.88-.75,1.88h6.69v8.17a10.09,10.09,0,0,1-5.6,1.65c-5.41,0-10.45-4.14-10.45-12s4.66-11.59,10-11.59,7.37,3,8.23,4.44h.38l1.35-3.8a22.94,22.94,0,0,0-10-2.25c-9.78,0-14.25,6.16-14.25,13.27,0,8.09,5.6,13.54,13.76,13.54a28.11,28.11,0,0,0,10.27-2.11V13.61ZM147.18,0C140,0,133,5.23,133,13.54S139.65,27,146.88,27s14.29-5.15,14.29-13.42S154.43,0,147.18,0Zm-9.93,13.54c0-7.18,3.53-12,9.93-12s9.7,4.78,9.7,12-3.54,11.84-10,11.84-9.66-4.7-9.66-11.84ZM179.67.6l-7.41,12.34L164.85.6h-4.29l8.88,14.82V26.21h3.69l0-11L181.89.6Zm19.38,25.61H203L193.15,0l-4.33.6-9.63,25.61h1.88l3.31-8.84h11.36Zm-14-10.72,5-13.2,5,13.2Z"></path></svg>
